<svg width="184" height="40" viewBox="0 0 184 40" fill="none" xmlns="http://www.w3.org/2000/svg">
<path d="M34.1422 5.85781C30.3647 2.08031 25.3422 0 20 0C14.6578 0 9.63531 2.08031 5.85781 5.85781C2.08031 9.63531 0 14.6578 0 20C0 25.3422 2.08039 30.3646 5.85781 34.1422C9.63523 37.9198 14.6578 40 20 40C25.3422 40 30.3647 37.9197 34.1422 34.1422C37.9197 30.3647 40 25.3422 40 20C40 14.6578 37.9196 9.63539 34.1422 5.85781Z" fill="#33CC95"/>
<g clip-path="url(#clip0)">
<path d="M20.5715 8V33.1429" stroke="white" stroke-width="2" stroke-linecap="round" stroke-linejoin="round"/>
<path d="M26.2858 12.5714H17.7144C16.6535 12.5714 15.6361 12.9929 14.8859 13.743C14.1358 14.4932 13.7144 15.5106 13.7144 16.5714C13.7144 17.6323 14.1358 18.6497 14.8859 19.3999C15.6361 20.15 16.6535 20.5714 17.7144 20.5714H23.4286C24.4895 20.5714 25.5069 20.9929 26.2571 21.743C27.0072 22.4932 27.4286 23.5106 27.4286 24.5714C27.4286 25.6323 27.0072 26.6497 26.2571 27.3999C25.5069 28.15 24.4895 28.5714 23.4286 28.5714H13.7144" stroke="white" stroke-width="2" stroke-linecap="round" stroke-linejoin="round"/>
</g>
<path d="M70.0984 11.3859V14.5208H61.9299V19.4868H68.1896V22.5662H61.9299V30.7503H58V11.3859H70.0984Z" fill="white"/>
<path d="M72.492 13.5498C71.7996 13.5498 71.2195 13.3371 70.7516 12.9117C70.3025 12.4678 70.078 11.9222 70.078 11.2749C70.078 10.6276 70.3025 10.0912 70.7516 9.66583C71.2195 9.22194 71.7996 9 72.492 9C73.1844 9 73.7552 9.22194 74.2043 9.66583C74.6722 10.0912 74.9061 10.6276 74.9061 11.2749C74.9061 11.9222 74.6722 12.4678 74.2043 12.9117C73.7552 13.3371 73.1844 13.5498 72.492 13.5498ZM74.4289 15.3808V30.7503H70.499V15.3808H74.4289Z" fill="white"/>
<path d="M84.5432 15.1589C86.3959 15.1589 87.893 15.7415 89.0345 16.9067C90.176 18.0534 90.7468 19.6625 90.7468 21.7339V30.7503H86.8169V22.261C86.8169 21.0404 86.5081 20.1063 85.8906 19.459C85.273 18.7932 84.4309 18.4603 83.3643 18.4603C82.2789 18.4603 81.418 18.7932 80.7818 19.459C80.1642 20.1063 79.8555 21.0404 79.8555 22.261V30.7503H75.9256V15.3808H79.8555V17.2951C80.3794 16.6293 81.0438 16.1114 81.8485 15.7415C82.6719 15.3531 83.5701 15.1589 84.5432 15.1589Z" fill="white"/>
<path d="M91.0874 23.0101C91.0874 21.4565 91.3961 20.0786 92.0137 18.8764C92.6499 17.6742 93.5014 16.7495 94.5681 16.1021C95.6535 15.4548 96.8605 15.1311 98.1892 15.1311C99.3494 15.1311 100.36 15.3623 101.221 15.8247C102.1 16.2871 102.802 16.8697 103.326 17.5725V15.3808H107.284V30.7503H103.326V28.5032C102.821 29.2245 102.119 29.8256 101.221 30.3064C100.341 30.7688 99.3213 31 98.1611 31C96.8511 31 95.6535 30.6671 94.5681 30.0013C93.5014 29.3354 92.6499 28.4014 92.0137 27.1992C91.3961 25.9786 91.0874 24.5822 91.0874 23.0101ZM103.326 23.0656C103.326 22.1223 103.139 21.3178 102.765 20.652C102.39 19.9676 101.885 19.4498 101.249 19.0984C100.613 18.7285 99.9295 18.5435 99.1997 18.5435C98.4699 18.5435 97.7962 18.7192 97.1786 19.0706C96.5611 19.422 96.0558 19.9399 95.6628 20.6242C95.2886 21.29 95.1014 22.0853 95.1014 23.0101C95.1014 23.9348 95.2886 24.7486 95.6628 25.4514C96.0558 26.1358 96.5611 26.6629 97.1786 27.0328C97.8149 27.4027 98.4886 27.5876 99.1997 27.5876C99.9295 27.5876 100.613 27.4119 101.249 27.0605C101.885 26.6906 102.39 26.1728 102.765 25.5069C103.139 24.8226 103.326 24.0088 103.326 23.0656Z" fill="white"/>
<path d="M117.354 15.1589C119.206 15.1589 120.704 15.7415 121.845 16.9067C122.987 18.0534 123.557 19.6625 123.557 21.7339V30.7503H119.628V22.261C119.628 21.0404 119.319 20.1063 118.701 19.459C118.084 18.7932 117.242 18.4603 116.175 18.4603C115.089 18.4603 114.229 18.7932 113.592 19.459C112.975 20.1063 112.666 21.0404 112.666 22.261V30.7503H108.736V15.3808H112.666V17.2951C113.19 16.6293 113.854 16.1114 114.659 15.7415C115.482 15.3531 116.381 15.1589 117.354 15.1589Z" fill="white"/>
<path d="M123.898 23.0656C123.898 21.475 124.225 20.0879 124.88 18.9042C125.535 17.702 126.443 16.7772 127.603 16.1299C128.763 15.4641 130.092 15.1311 131.589 15.1311C133.517 15.1311 135.107 15.612 136.361 16.5738C137.634 17.517 138.485 18.8487 138.916 20.5687H134.677C134.452 19.9029 134.069 19.385 133.526 19.0151C133.002 18.6267 132.347 18.4325 131.561 18.4325C130.438 18.4325 129.549 18.8394 128.894 19.6532C128.24 20.4485 127.912 21.586 127.912 23.0656C127.912 24.5267 128.24 25.6641 128.894 26.4779C129.549 27.2732 130.438 27.6709 131.561 27.6709C133.152 27.6709 134.19 26.9681 134.677 25.5624H138.916C138.485 27.227 137.634 28.5494 136.361 29.5296C135.089 30.5099 133.498 31 131.589 31C130.092 31 128.763 30.6763 127.603 30.029C126.443 29.3632 125.535 28.4384 124.88 27.2547C124.225 26.0525 123.898 24.6562 123.898 23.0656Z" fill="white"/>
<path d="M153.865 22.7327C153.865 23.2875 153.827 23.7869 153.753 24.2308H142.384C142.478 25.3405 142.871 26.2098 143.563 26.8386C144.255 27.4674 145.107 27.7818 146.117 27.7818C147.577 27.7818 148.616 27.1623 149.233 25.9231H153.472C153.023 27.4027 152.162 28.6234 150.889 29.5851C149.617 30.5284 148.054 31 146.202 31C144.705 31 143.357 30.6763 142.16 30.029C140.981 29.3632 140.054 28.4292 139.381 27.227C138.726 26.0248 138.398 24.6377 138.398 23.0656C138.398 21.475 138.726 20.0786 139.381 18.8764C140.036 17.6742 140.952 16.7495 142.131 16.1021C143.31 15.4548 144.667 15.1311 146.202 15.1311C147.68 15.1311 148.999 15.4456 150.16 16.0744C151.339 16.7032 152.246 17.6003 152.882 18.7654C153.537 19.9121 153.865 21.2346 153.865 22.7327ZM149.795 21.623C149.776 20.6242 149.411 19.8289 148.7 19.2371C147.989 18.6267 147.119 18.3216 146.089 18.3216C145.116 18.3216 144.293 18.6175 143.619 19.2093C142.964 19.7827 142.562 20.5872 142.412 21.623H149.795Z" fill="white"/>
<path d="M160.39 30.9445C159.679 30.9445 159.09 30.7318 158.622 30.3064C158.173 29.8625 157.948 29.3169 157.948 28.6696C157.948 28.0223 158.173 27.4859 158.622 27.0605C159.09 26.6166 159.679 26.3947 160.39 26.3947C161.083 26.3947 161.654 26.6166 162.103 27.0605C162.552 27.4859 162.776 28.0223 162.776 28.6696C162.776 29.3169 162.552 29.8625 162.103 30.3064C161.654 30.7318 161.083 30.9445 160.39 30.9445Z" fill="white"/>
<path d="M165.549 13.5498C164.856 13.5498 164.276 13.3371 163.808 12.9117C163.359 12.4678 163.135 11.9222 163.135 11.2749C163.135 10.6276 163.359 10.0912 163.808 9.66583C164.276 9.22194 164.856 9 165.549 9C166.241 9 166.812 9.22194 167.261 9.66583C167.729 10.0912 167.963 10.6276 167.963 11.2749C167.963 11.9222 167.729 12.4678 167.261 12.9117C166.812 13.3371 166.241 13.5498 165.549 13.5498ZM167.486 15.3808V30.7503H163.556V15.3808H167.486Z" fill="white"/>
<path d="M175.888 31C174.391 31 173.043 30.6763 171.846 30.029C170.648 29.3632 169.703 28.4292 169.01 27.227C168.337 26.0248 168 24.6377 168 23.0656C168 21.4935 168.346 20.1063 169.038 18.9042C169.75 17.702 170.713 16.7772 171.93 16.1299C173.146 15.4641 174.503 15.1311 176 15.1311C177.497 15.1311 178.854 15.4641 180.07 16.1299C181.287 16.7772 182.241 17.702 182.933 18.9042C183.644 20.1063 184 21.4935 184 23.0656C184 24.6377 183.635 26.0248 182.905 27.227C182.194 28.4292 181.221 29.3632 179.986 30.029C178.77 30.6763 177.403 31 175.888 31ZM175.888 27.6154C176.599 27.6154 177.263 27.4489 177.881 27.116C178.517 26.7646 179.022 26.2467 179.396 25.5624C179.771 24.8781 179.958 24.0458 179.958 23.0656C179.958 21.6045 179.565 20.4855 178.779 19.7087C178.012 18.9134 177.067 18.5158 175.944 18.5158C174.821 18.5158 173.876 18.9134 173.109 19.7087C172.36 20.4855 171.986 21.6045 171.986 23.0656C171.986 24.5267 172.351 25.6549 173.081 26.4502C173.829 27.227 174.765 27.6154 175.888 27.6154Z" fill="white"/>
<defs>
<clipPath id="clip0">
<rect width="27.4286" height="27.4286" fill="white" transform="translate(6.85718 6.85715)"/>
</clipPath>
</defs>
</svg>
